<svg version="1.0" xmlns="http://www.w3.org/2000/svg" width="700.000000pt" height="394.000000pt" viewBox="0 0 700.000000 394.000000" preserveAspectRatio="xMidYMid meet">
<metadata>
Created by potrace 1.12, written by Peter Selinger 2001-2015
</metadata>
<g transform="translate(0.000000,394.000000) scale(0.100000,-0.100000)" fill="hsl(0, 60%, 37%)" stroke="none">
<path d="M2625 3158 c-3 -7 -4 -240 -3 -518 l3 -505 92 -3 93 -3 2 423 3 423
150 0 150 0 0 -98 0 -99 -120 -1 -120 -2 0 -95 0 -95 54 -5 55 -5 80 -210 c45
-116 85 -216 89 -223 10 -15 183 -17 192 -2 3 6 -30 106 -74 223 -45 117 -81
218 -81 224 0 7 14 20 31 28 16 9 43 37 60 63 29 46 29 47 29 197 0 150 0 151
-29 198 -19 28 -46 55 -73 69 -41 22 -54 23 -311 26 -213 3 -268 1 -272 -10z"></path>
<path d="M3410 3146 c0 -9 39 -145 86 -303 47 -159 114 -382 149 -498 l63
-210 98 0 c83 0 99 2 96 15 -1 8 -69 238 -150 510 l-147 495 -98 3 c-81 2 -97
0 -97 -12z"></path>
<path d="M4076 3152 c-11 -18 -206 -682 -206 -702 0 -29 79 -302 91 -315 5 -5
9 -6 9 -2 0 3 68 231 150 506 83 274 150 504 150 510 0 13 -186 16 -194 3z"></path>
<path d="M2985 1848 c-17 -44 -335 -1004 -335 -1010 0 -5 45 -8 99 -8 l99 0
29 88 30 87 144 3 c79 1 149 4 156 7 8 3 3 30 -18 94 l-31 91 -89 0 c-64 0
-89 3 -89 13 0 27 104 327 111 320 4 -4 49 -132 99 -283 51 -151 104 -308 117
-347 l26 -73 98 0 c55 0 99 2 99 5 0 3 -76 233 -170 512 -93 279 -170 508
-170 510 0 2 -45 3 -100 3 -71 0 -102 -4 -105 -12z"></path>
<path d="M3735 1836 c-39 -17 -80 -65 -95 -111 -22 -68 -33 -66 292 -63 l293
3 3 93 3 92 -233 0 c-171 -1 -241 -4 -263 -14z"></path>
<path d="M3637 1603 c-12 -11 -8 -629 4 -660 5 -15 22 -41 37 -56 52 -55 62
-57 317 -57 l236 0 -3 93 -3 92 -203 5 c-111 3 -202 8 -202 13 0 4 0 135 0
292 l0 285 -88 0 c-49 0 -92 -3 -95 -7z"></path>
</g>
</svg>